<svg width="318" height="40" viewBox="0 0 318 40" fill="none" xmlns="http://www.w3.org/2000/svg">
<path d="M176.699 15.2C176.699 15.5 176.499 15.7 176.199 15.7H141.799C141.499 15.7 141.299 15.5 141.299 15.2V0.799988C141.299 0.499988 141.099 0.299988 140.799 0.299988H131.199C130.899 0.299988 130.699 0.499988 130.699 0.799988V39.5C130.699 39.8 130.899 40 131.199 40H140.799C141.099 40 141.299 39.8 141.299 39.5V24.5C141.299 24.2 141.499 24 141.799 24H176.199C176.499 24 176.699 24.2 176.699 24.5V39.5C176.699 39.8 176.899 40 177.199 40H186.799C187.099 40 187.299 39.8 187.299 39.5V0.799988C187.299 0.499988 187.099 0.299988 186.799 0.299988H177.199C176.899 0.299988 176.699 0.499988 176.699 0.799988V15.2Z" fill="black"/>
<path d="M212.9 31.8V24.3C212.9 24 213.1 23.8 213.4 23.8H234.1C234.4 23.8 234.6 23.6 234.6 23.3V16.3C234.6 16 234.4 15.8 234.1 15.8H213.4C213.1 15.8 212.9 15.6 212.9 15.3V8.59999C212.9 8.29999 213.1 8.09999 213.4 8.09999H244.2C244.5 8.09999 244.7 7.89999 244.7 7.59999V0.799988C244.7 0.499988 244.5 0.299988 244.2 0.299988H212.9H202.8C202.5 0.299988 202.3 0.499988 202.3 0.799988V39.5C202.3 39.8 202.5 40 202.8 40H212.9H245.7C246 40 246.2 39.8 246.2 39.5V32.8C246.2 32.5 246 32.3 245.7 32.3H213.4C213.1 32.2 212.9 32.1 212.9 31.8Z" fill="black"/>
<path d="M118.599 0.799988C118.599 0.499988 118.399 0.299988 118.099 0.299988H95.5994H84.8994H62.3994C62.0994 0.299988 61.8994 0.499988 61.8994 0.799988V7.89999C61.8994 8.19999 62.0994 8.39999 62.3994 8.39999H84.3994C84.6994 8.39999 84.8994 8.59999 84.8994 8.89999V39.5C84.8994 39.8 85.0994 40 85.3994 40H94.9994C95.2994 40 95.4994 39.8 95.4994 39.5V8.89999C95.4994 8.59999 95.6994 8.39999 95.9994 8.39999H117.999C118.299 8.39999 118.499 8.19999 118.499 7.89999V0.799988H118.599Z" fill="black"/>
<path d="M51.3996 40H61.6996C62.0996 40 62.3996 39.5 62.0996 39.2L36.6996 0.499989C36.5996 0.399989 36.3996 0.299988 36.2996 0.299988H26.3996C26.1996 0.299988 26.0996 0.399989 25.9996 0.499989L0.199555 39.2C-0.000445217 39.5 0.199554 40 0.599554 40H10.6996C10.8996 40 10.9996 39.9 11.0996 39.8L15.9996 32.3C16.0996 32.2 16.2996 32.1 16.3996 32.1H45.5996C45.7996 32.1 45.8996 32.2 45.9996 32.3L50.8996 39.8C51.0996 39.9 51.1996 40 51.3996 40ZM22.0996 23L30.6996 9.79999C30.8996 9.49999 31.3996 9.49999 31.5996 9.79999L40.0996 23C40.2996 23.3 40.0996 23.8 39.6996 23.8H22.4996C22.0996 23.8 21.8996 23.4 22.0996 23Z" fill="black"/>
<path d="M309.3 25.5C312.9 23 315.3 18.8 315.2 14C315.1 6.30001 308.6 0.200012 300.9 0.200012H270.4H260.3C260 0.200012 259.8 0.400012 259.8 0.700012V28V39.5C259.8 39.8 260 40 260.3 40H269.9C270.2 40 270.4 39.8 270.4 39.5V28.5C270.4 28.2 270.6 28 270.9 28H298.8C299 28 299.1 28.1 299.2 28.2L307.1 39.8C307.2 39.9 307.4 40 307.5 40H317.4C317.8 40 318.1 39.5 317.8 39.2L308.9 26.2C309 26 309 25.7 309.3 25.5ZM299.4 19.7H274.8C271.7 19.7 269 17.3 269 14.3C268.9 11.1 271.5 8.50001 274.6 8.50001H299.2C302.3 8.50001 305 10.9 305 13.9C305.1 17.1 302.6 19.7 299.4 19.7Z" fill="black"/>
</svg>
